<svg xmlns="http://www.w3.org/2000/svg" xmlns:xlink="http://www.w3.org/1999/xlink" width="24" height="24" preserveAspectRatio="xMidYMid meet" viewBox="0 0 24 24" style="-ms-transform: rotate(360deg); -webkit-transform: rotate(360deg); transform: rotate(360deg);"><path d="M7 9V8a1 1 0 1 0-2 0v1H4a1 1 0 1 0 0 2h1v1a1 1 0 1 0 2 0v-1h1a1 1 0 1 0 0-2H7zm2.318-4h5.364A6 6 0 0 1 24 10c0 3.314-2.686 10-6 10c-1.976 0-3.729-2.378-4.822-5h-2.356C9.73 17.622 7.976 20 6 20c-3.314 0-6-6.686-6-10a6 6 0 0 1 9.318-5zM18 9a1 1 0 1 0 0-2a1 1 0 0 0 0 2zm-2 2a1 1 0 1 0 0-2a1 1 0 0 0 0 2zm4 0a1 1 0 1 0 0-2a1 1 0 0 0 0 2zm-2 2a1 1 0 1 0 0-2a1 1 0 0 0 0 2z" fill="#626262"/><rect x="0" y="0" width="24" height="24" fill="rgba(0, 0, 0, 0)" /></svg>